<?xml version="1.0" encoding="UTF-8"?>
<svg width="78px" height="32px" viewBox="0 0 78 32" version="1.1" xmlns="http://www.w3.org/2000/svg" xmlns:xlink="http://www.w3.org/1999/xlink">
    <!-- Generator: Sketch 49.3 (51167) - http://www.bohemiancoding.com/sketch -->
    <title>logo</title>
    <desc>Created with Sketch.</desc>
    <defs>
        <path d="M38.6293051,2.65200727 L38.2515137,4.35686788 L37.2125895,9.75559879 C36.7403482,12.1234655 35.3236242,12.2181818 33.7180003,12.4076145 L33.6235504,10.2291721 C34.2846916,10.1344642 34.8513829,9.94503152 34.9458329,9.28202545 L35.7958656,4.92515758 L33.7180003,5.39873091 L31.829035,14.6807615 L29.2789369,14.6807615 L30.9790023,5.96702061 L29.184487,6.34587758 L27.4844216,14.7754753 C27.3899716,15.4384779 27.767763,15.7226219 28.5233542,15.8173358 L32.1123849,15.8173358 C34.0013502,15.8173358 34.1902417,14.7754753 35.1347243,13.0706121 L37.307031,13.8283261 C36.3625484,15.8173358 35.6069656,17.9010567 33.0568676,17.9010567 L27.5788715,17.9010567 C25.5010063,17.9010567 24.6509736,16.9539109 24.9343235,15.1543339 L26.5399389,7.00888364 L25.2176649,7.29302424 L25.6899062,4.83044121 L27.0121803,4.54630061 L27.4844216,1.9890097 L30.0345197,1.9890097 L29.6567283,3.97801091 L31.4512437,3.59915394 L32.1123849,0.37885697 L34.662483,0.37885697 L34.0957917,3.03086424 L38.6293051,2.08371758 L38.6293051,2.65200727 L38.6293051,2.65200727 Z M23.5175995,13.4494691 L23.1398081,15.3437633 L23.0453582,15.8173358 L18.1340534,16.8591962 L18.6062948,14.3966158 L20.8730515,13.9230424 L22.1953255,7.57716485 L19.9285688,8.05073818 L20.4008101,5.58816364 L22.6675668,5.1145903 L23.706491,0 L26.2565975,0 L25.3121149,4.54630061 L25.0287734,5.87230424 L23.5175995,13.4494691 L23.5175995,13.4494691 Z M16.0561882,8.90316848 L14.2616729,11.3657515 C12.9393988,10.5133212 11.6171248,9.56617455 10.1059593,8.80846061 C10.0115094,10.9868945 9.53926805,14.9649046 11.8060247,15.2490486 C13.3171902,15.4384779 14.1672314,13.1653285 14.6394727,12.1234655 L16.7173295,12.7864715 C15.7728468,14.8701899 14.4505728,17.7116282 11.8060247,17.7116282 C9.25591818,17.7116282 7.7447527,16.3856238 7.36696133,13.6389018 C7.08361145,11.5551758 7.46140282,7.95602182 8.5947854,2.55729091 L0,2.55729091 L0.472241328,0.0947163636 L11.7115748,0.0947163636 L10.7670921,4.73573333 L15.7728468,0.663006061 L17.5673622,2.93615636 L12.1838161,6.63001818 L16.0561882,8.90316848 L16.0561882,8.90316848 Z" id="path-1"></path>
    </defs>
    <g id="Page-1" stroke="none" stroke-width="1" fill="none" fill-rule="evenodd">
        <g id="专栏_简介" transform="translate(-26.000000, -14.000000)">
            <g id="header">
                <g id="logo" transform="translate(28.000000, 16.000000)">
                    <polygon id="Stroke-1" stroke="#404146" stroke-width="2.1" points="22.0148273 28 27.9212452 12.6792485 27.9212452 0 15.034516 0 0 6.33962255 0 28"></polygon>
                    <g id="Group-5" transform="translate(36.382229, 5.090909)">
                        <mask id="mask-2" fill="white">
                            <use xlink:href="#path-1"></use>
                        </mask>
                        <g id="Clip-4"></g>
                        <polygon id="Fill-3" fill="#404146" mask="url(#mask-2)" points="-4.2304917 -4.24242424 42.8597968 -4.24242424 42.8597968 22.1434813 -4.2304917 22.1434813"></polygon>
                    </g>
                </g>
            </g>
        </g>
    </g>
</svg>